<svg xmlns="http://www.w3.org/2000/svg" style="display: none;">
  <symbol id="icon-users" viewBox="0 0 24 24" fill="none" stroke="currentColor" stroke-width="2"
    stroke-linecap="round" stroke-linejoin="round">
    <path d="M16 21v-2a4 4 0 0 0-4-4H6a4 4 0 0 0-4 4v2" />
    <path d="M16 3.128a4 4 0 0 1 0 7.744" />
    <path d="M22 21v-2a4 4 0 0 0-3-3.87" />
    <circle cx="9" cy="7" r="4" />
  </symbol>

  <symbol viewBox="0 0 24 24" fill="none"
    stroke="currentColor" stroke-width="2" stroke-linecap="round" stroke-linejoin="round"
    id="icon-building">
    <path d="M12 10h.01" />
    <path d="M12 14h.01" />
    <path d="M12 6h.01" />
    <path d="M16 10h.01" />
    <path d="M16 14h.01" />
    <path d="M16 6h.01" />
    <path d="M8 10h.01" />
    <path d="M8 14h.01" />
    <path d="M8 6h.01" />
    <path d="M9 22v-3a1 1 0 0 1 1-1h4a1 1 0 0 1 1 1v3" />
    <rect x="4" y="2" width="16" height="20" rx="2" />
  </symbol>

  <symbol viewBox="0 0 24 24" fill="none"
    stroke="currentColor" stroke-width="3" stroke-linecap="round" stroke-linejoin="round"
    id="icon-backup">
    <ellipse cx="12" cy="5" rx="9" ry="2" />
    <path d="M3 12a9 3 0 0 0 5 2.69" />
    <path d="M21 9.3V5" />
    <path d="M3 5v14a9 3 0 0 0 6.47 2.88" />
    <path d="M12 12v4h4" />
    <path d="M13 20a5 5 0 0 0 9-3 4.5 4.5 0 0 0-4.5-4.5c-1.33 0-2.54.54-3.41 1.41L12 16" />
  </symbol>

  <svg viewBox="0 0 24 24" fill="none"
    stroke="currentColor" stroke-width="2" stroke-linecap="round" stroke-linejoin="round"
    id="icon-export">
    <path
      d="M6 22a2 2 0 0 1-2-2V4a2 2 0 0 1 2-2h8a2.4 2.4 0 0 1 1.704.706l3.588 3.588A2.4 2.4 0 0 1 20 8v12a2 2 0 0 1-2 2z" />
    <path d="M14 2v5a1 1 0 0 0 1 1h5" />
    <path d="M12 12v6" />
    <path d="m15 15-3-3-3 3" />
  </svg>

  <symbol viewBox="0 0 24 24" fill="none"
    stroke="currentColor" stroke-width="3" stroke-linecap="round" stroke-linejoin="round"
    id="icon-settings">
    <path
      d="M9.671 4.136a2.34 2.34 0 0 1 4.659 0 2.34 2.34 0 0 0 3.319 1.915 2.34 2.34 0 0 1 2.33 4.033 2.34 2.34 0 0 0 0 3.831 2.34 2.34 0 0 1-2.33 4.033 2.34 2.34 0 0 0-3.319 1.915 2.34 2.34 0 0 1-4.659 0 2.34 2.34 0 0 0-3.32-1.915 2.34 2.34 0 0 1-2.33-4.033 2.34 2.34 0 0 0 0-3.831A2.34 2.34 0 0 1 6.35 6.051a2.34 2.34 0 0 0 3.319-1.915" />
    <circle cx="12" cy="12" r="3" />
  </symbol>
</svg>