<svg xmlns="http://www.w3.org/2000/svg">
  <symbol width="24" height="24" viewBox="0 0 24 24" fill="none" stroke="currentColor"
    stroke-width="2" stroke-linecap="round" stroke-linejoin="round"
    id="icon-employees">
    <path d="M16 21v-2a4 4 0 0 0-4-4H6a4 4 0 0 0-4 4v2" />
    <path
      d="M16 3.128a4 4 0 0 1 0 7.744" />
    <path d="M22 21v-2a4 4 0 0 0-3-3.87" />
    <circle cx="9" cy="7"
      r="4" />
  </symbol>

  <symbol width="24" height="24" viewBox="0 0 24 24" fill="none"
    stroke="currentColor" stroke-width="2" stroke-linecap="round" stroke-linejoin="round"
    id="icon-documents">
    <path
      d="M6 22a2 2 0 0 1-2-2V4a2 2 0 0 1 2-2h8a2.4 2.4 0 0 1 1.704.706l3.588 3.588A2.4 2.4 0 0 1 20 8v12a2 2 0 0 1-2 2z" />
    <path d="M14 2v5a1 1 0 0 0 1 1h5" />
    <path d="M10 9H8" />
    <path d="M16 13H8" />
    <path d="M16 17H8" />
  </symbol>

  <symbol width="24" height="24" viewBox="0 0 24 24" fill="none"
    stroke="currentColor" stroke-width="2" stroke-linecap="round" stroke-linejoin="round"
    id="icon-quick-export">
    <path d="m16 6-4-4-4 4" />
    <path d="M12 2v8" />
    <rect width="20" height="8" x="2" y="14" rx="2" />
    <path d="M6 18h.01" />
    <path d="M10 18h.01" />
  </symbol>

  <symbol width="24" height="24" viewBox="0 0 24 24" fill="none"
    stroke="currentColor" stroke-width="2" stroke-linecap="round" stroke-linejoin="round"
    id="icon-backup-and-restore">
    <ellipse cx="12" cy="5" rx="9" ry="3" />
    <path d="M3 12a9 3 0 0 0 5 2.69" />
    <path d="M21 9.3V5" />
    <path d="M3 5v14a9 3 0 0 0 6.47 2.88" />
    <path d="M12 12v4h4" />
    <path d="M13 20a5 5 0 0 0 9-3 4.5 4.5 0 0 0-4.5-4.5c-1.33 0-2.54.54-3.41 1.41L12 16" />
  </symbol>

  <symbol width="24" height="24" viewBox="0 0 24 24" fill="none"
    stroke="currentColor" stroke-width="2" stroke-linecap="round" stroke-linejoin="round"
    id="icon-settings">
    <path
      d="M9.671 4.136a2.34 2.34 0 0 1 4.659 0 2.34 2.34 0 0 0 3.319 1.915 2.34 2.34 0 0 1 2.33 4.033 2.34 2.34 0 0 0 0 3.831 2.34 2.34 0 0 1-2.33 4.033 2.34 2.34 0 0 0-3.319 1.915 2.34 2.34 0 0 1-4.659 0 2.34 2.34 0 0 0-3.32-1.915 2.34 2.34 0 0 1-2.33-4.033 2.34 2.34 0 0 0 0-3.831A2.34 2.34 0 0 1 6.35 6.051a2.34 2.34 0 0 0 3.319-1.915" />
    <circle cx="12" cy="12" r="3" />
  </symbol>
</svg>